<?xml version="1.0" encoding="utf-8"?>
<!-- Generator: Adobe Illustrator 26.0.1, SVG Export Plug-In . SVG Version: 6.00 Build 0)  -->
<svg version="1.1" id="Layer_1" xmlns="http://www.w3.org/2000/svg" xmlns:xlink="http://www.w3.org/1999/xlink" x="0px" y="0px"
	 viewBox="0 0 64 64" style="enable-background:new 0 0 64 64;" xml:space="preserve">
<style type="text/css">
	.st0{fill:#F19023;}
</style>
<g>
	<path class="st0" d="M32.97,0c0.51,0.33,0.68,0.81,0.67,1.42c-0.02,3.08-0.01,6.16-0.01,9.25c0,0.21,0.01,0.42-0.04,0.62
		c-0.13,0.51-0.49,0.78-1,0.77c-0.51,0-0.87-0.27-1-0.78c-0.05-0.22-0.04-0.46-0.04-0.68c0-3.04,0.01-6.08-0.01-9.12
		c0-0.63,0.14-1.13,0.68-1.48C32.47,0,32.72,0,32.97,0z"/>
	<path class="st0" d="M14.67,45.83c1.14-0.53,2.31-0.99,3.56-1.23c3-0.58,5.92-0.32,8.62,1.1c1.98,1.04,4.01,1.53,6.22,1.52
		c1.94-0.01,3.87,0.09,5.81,0.14c2.42,0.06,4.32,1.09,5.64,3.13c0.23,0.36,0.39,0.34,0.72,0.18c2.64-1.26,5.28-2.52,7.94-3.75
		c2.38-1.1,5.18-0.28,6.61,1.88c0.55,0.83,0.45,1.35-0.37,1.88c-6.09,3.94-12.15,7.93-18.29,11.79c-2.24,1.41-4.85,1.69-7.47,1.45
		c-2.25-0.21-4.35-1.05-6.52-1.63c-2.65-0.71-5.28-1.46-7.92-2.21c-1.04-0.29-2.01-0.18-2.96,0.33c-0.35,0.19-0.68,0.41-1.04,0.56
		c-0.68,0.28-1.13,0.62-1.08,1.48c0.04,0.61-0.44,0.95-1.09,0.94c-2.71-0.06-5.41-0.12-8.12-0.2c-0.85-0.03-1.2-0.46-1.18-1.35
		c0.16-5.93,0.32-11.87,0.49-17.8c0.02-0.84,0.42-1.23,1.24-1.21c2.62,0.06,5.25,0.12,7.87,0.2c1.02,0.03,1.36,0.42,1.32,1.46
		C14.66,44.92,14.67,45.36,14.67,45.83z M57.56,49.38c-1.2-0.93-2.4-1.08-3.69-0.48c-2.61,1.23-5.21,2.48-7.83,3.69
		c-0.46,0.21-0.59,0.41-0.5,0.93c0.18,1.05-0.08,1.79-1.56,1.74c-3.7-0.14-7.41-0.21-11.12-0.31c-0.35-0.01-0.71-0.01-1.06-0.08
		c-0.54-0.11-0.82-0.5-0.8-1.04c0.02-0.53,0.32-0.9,0.87-0.98c0.2-0.03,0.42-0.02,0.62-0.01c3.46,0.09,6.91,0.18,10.37,0.28
		c0.43,0.01,0.53-0.06,0.38-0.5c-0.59-1.77-2.23-3.06-4.1-3.14c-1.48-0.06-2.96-0.08-4.43-0.13c-1.35-0.04-2.71-0.06-4.06-0.15
		c-1.72-0.12-3.21-0.92-4.74-1.63c-3.71-1.72-7.37-1.52-10.93,0.52c-0.31,0.18-0.43,0.38-0.43,0.73c-0.04,1.79-0.12,3.58-0.15,5.37
		c-0.03,1.6-0.01,3.19-0.01,4.8c0.27-0.03,0.53-0.25,0.81-0.4c1.48-0.81,3.02-0.97,4.64-0.51c2.08,0.59,4.15,1.2,6.24,1.74
		c2.47,0.65,4.87,1.59,7.41,1.94c2.6,0.36,5.09-0.06,7.34-1.56c1.9-1.27,3.84-2.49,5.76-3.73C50.22,54.13,53.85,51.78,57.56,49.38z
		 M6.1,53c0.01,0,0.01,0,0.02,0c-0.08,2.54-0.15,5.07-0.23,7.61c-0.01,0.34,0.01,0.51,0.44,0.52c1.77,0.02,3.54,0.06,5.3,0.14
		c0.45,0.02,0.49-0.15,0.5-0.52c0.13-5.05,0.27-10.11,0.42-15.16c0.01-0.38-0.06-0.49-0.46-0.5c-1.75-0.02-3.49-0.07-5.24-0.14
		c-0.4-0.02-0.53,0.07-0.54,0.49C6.26,47.97,6.17,50.49,6.1,53z"/>
	<path class="st0" d="M32.58,44.4c-8.42-0.01-15.24-6.86-15.21-15.26c0.03-8.38,6.87-15.17,15.25-15.16
		c8.42,0.01,15.25,6.86,15.21,15.26C47.79,37.64,40.97,44.41,32.58,44.4z M32.57,42.31c7.21,0.03,13.12-5.84,13.14-13.06
		c0.02-7.27-5.83-13.15-13.09-13.17c-7.23-0.01-13.12,5.84-13.15,13.06C19.45,36.39,25.31,42.29,32.57,42.31z"/>
	<path class="st0" d="M41.51,8.69c0,0.75,0.01,1.5,0,2.24c-0.02,0.7-0.45,1.14-1.06,1.13c-0.59-0.01-1.01-0.44-1.01-1.11
		c-0.02-1.54-0.02-3.07,0-4.61c0.01-0.66,0.44-1.09,1.03-1.1c0.61-0.01,1.03,0.43,1.05,1.14C41.52,7.16,41.51,7.93,41.51,8.69z"/>
	<path class="st0" d="M23.68,8.66c0-0.75-0.01-1.5,0-2.24c0.01-0.72,0.41-1.16,1.02-1.17c0.63-0.01,1.05,0.44,1.06,1.19
		c0.01,1.47,0.01,2.95,0,4.42c-0.01,0.75-0.42,1.21-1.05,1.2c-0.62-0.01-1.02-0.47-1.03-1.22C23.67,10.12,23.68,9.39,23.68,8.66z"/>
	<path class="st0" d="M38.4,35.27c0.14-1.36-0.69-2.51-1.99-2.63c-0.8-0.08-1.61-0.02-2.41-0.03c-0.16,0-0.13,0.1-0.13,0.19
		c0,0.63,0.01,1.25-0.01,1.88c0,0.18,0.05,0.22,0.22,0.22c0.62-0.01,1.23,0,1.85-0.01c0.18,0,0.22,0.04,0.21,0.22
		c-0.1,1.11-1.06,2.02-2.18,2.06c-1.3,0.04-2.36-0.97-2.36-2.27c-0.01-2.18,0-4.36-0.01-6.54c0-0.24,0.05-0.29,0.29-0.29
		c2.09,0.01,4.19,0,6.28,0.01c0.21,0,0.27-0.05,0.26-0.26c-0.02-0.58-0.02-1.16,0-1.73c0.01-0.24-0.06-0.29-0.29-0.29
		c-2.09,0.01-4.19,0-6.28,0.01c-0.22,0-0.26-0.05-0.26-0.26c0.01-1.04,0.01-2.08,0-3.13c-0.01-2.17-1.91-3.75-4.04-3.38
		c-1.48,0.26-2.66,1.58-2.78,3.08c-0.01,0.19,0,0.28,0.24,0.28c0.6-0.02,1.19-0.01,1.79,0c0.16,0,0.23-0.02,0.27-0.21
		c0.11-0.6,0.65-0.99,1.24-0.92c0.58,0.07,1,0.54,1.01,1.15c0.01,1.06,0,2.12,0.01,3.18c0,0.18-0.06,0.22-0.22,0.21
		c-0.61-0.01-1.21,0-1.82-0.01c-0.17,0-0.25,0.02-0.24,0.22c0.02,0.62,0.01,1.23,0,1.85c0,0.19,0.06,0.21,0.22,0.21
		c0.59-0.01,1.18,0.01,1.76-0.01c0.27-0.01,0.3,0.08,0.3,0.31c-0.01,1.12-0.01,2.24-0.01,3.35c0,0,0,0,0,0c0,1.11-0.02,2.22,0,3.32
		c0.04,2.34,2.04,4.33,4.37,4.38C36.15,39.48,38.15,37.72,38.4,35.27z"/>
</g>
</svg>
