<?xml version="1.0" encoding="utf-8"?>
<!-- Generator: Adobe Illustrator 26.0.1, SVG Export Plug-In . SVG Version: 6.00 Build 0)  -->
<svg version="1.1" id="Layer_1" xmlns="http://www.w3.org/2000/svg" xmlns:xlink="http://www.w3.org/1999/xlink" x="0px" y="0px"
	 viewBox="0 0 64 64" style="enable-background:new 0 0 64 64;" xml:space="preserve">
<style type="text/css">
	.st0{fill:#F19023;}
	.st1{fill:#FDFDFD;}
	.st2{fill:#FBFBFB;}
	.st3{fill:#FAFAFA;}
	.st4{fill:#F5F5F5;}
</style>
<g>
	<path class="st0" d="M0,54.03c1.97-4.76,4.82-9.05,7.31-13.52c6.35-11.42,12.82-22.78,19.21-34.17c1.16-2.07,2.83-3.33,5.22-3.41
		c2.54-0.09,4.42,1.05,5.66,3.28c1.99,3.58,4.02,7.14,6.03,10.72c6.47,11.48,12.93,22.95,19.41,34.42c0.9,1.59,1.45,3.22,0.99,5.06
		c-0.69,2.75-3.2,4.7-6.17,4.74c-1.29,0.02-2.58,0-3.87,0c-15.69,0-31.37,0-47.06,0c-3.59,0-5.5-1.39-6.59-4.81
		C0.11,56.25,0.09,56.18,0,56.15C0,55.45,0,54.74,0,54.03z M32.05,9.04c-0.25,0.16-0.31,0.39-0.42,0.58
		C23.21,24.56,14.8,39.49,6.38,54.43C6,55.11,6,55.11,6.76,55.11c16.83,0,33.66,0,50.49,0c0.76,0,0.76,0,0.38-0.68
		C49.45,39.91,41.27,25.4,33.1,10.88C32.75,10.27,32.4,9.66,32.05,9.04z"/>
	<path class="st0" d="M36.31,29.58c-0.27,1.85-0.54,3.7-0.82,5.55c-0.28,1.83-0.55,3.66-0.85,5.49c-0.22,1.37-1.35,2.38-2.64,2.39
		c-1.36,0.01-2.41-0.94-2.64-2.42c-0.53-3.43-1.05-6.87-1.57-10.3c-0.33-2.17,1.05-4.31,3.11-4.87c2.12-0.58,4.31,0.55,5.12,2.62
		C36.21,28.53,36.29,29.04,36.31,29.58z"/>
	<path class="st0" d="M29.61,47.6c0.02-1.35,1.1-2.38,2.46-2.35c1.35,0.03,2.37,1.11,2.34,2.48c-0.03,1.32-1.1,2.34-2.43,2.32
		C30.63,50.03,29.58,48.95,29.61,47.6z"/>
</g>
</svg>
