<?xml version="1.0" encoding="utf-8"?>
<!-- Generator: Adobe Illustrator 26.0.1, SVG Export Plug-In . SVG Version: 6.00 Build 0)  -->
<svg version="1.1" id="Layer_1" xmlns="http://www.w3.org/2000/svg" xmlns:xlink="http://www.w3.org/1999/xlink" x="0px" y="0px"
	 viewBox="0 0 64 64" style="enable-background:new 0 0 64 64;" xml:space="preserve">
<style type="text/css">
	.st0{fill:#F19023;}
</style>
<path class="st0" d="M60.13,29.73c1.37-1.41,1.77-3.16,1.16-5.08c-0.6-1.89-1.89-3.05-3.77-3.35c-4.62-0.74-9.25-1.43-13.87-2.11
	c-0.58-0.08-0.89-0.33-1.14-0.87c-2.01-4.29-4.05-8.56-6.08-12.85c-0.39-0.83-0.91-1.54-1.65-2.07c-2.44-1.75-5.68-0.87-7.03,1.95
	c-2.07,4.33-4.11,8.68-6.15,13.03c-0.23,0.48-0.52,0.72-1.05,0.8c-4.61,0.68-9.21,1.39-13.81,2.09c-1.5,0.23-2.66,1.01-3.45,2.35
	c-1.17,1.98-0.87,4.48,0.77,6.15c3.31,3.39,6.63,6.76,9.96,10.12c0.41,0.41,0.56,0.81,0.45,1.41c-0.6,3.49-1.16,6.98-1.73,10.47
	c-0.26,1.57-0.51,3.14-0.76,4.71c0.04,0.5,0.13,0.98,0.27,1.45c0.89,3.02,4.09,4.41,6.85,2.92c4.12-2.23,8.23-4.49,12.33-6.76
	c0.47-0.26,0.84-0.27,1.31-0.01c1.83,1.03,3.68,2.02,5.52,3.03c2.37,1.29,4.71,2.63,7.11,3.86c1.69,0.87,3.37,0.62,4.86-0.55
	c1.47-1.16,2.13-2.77,1.84-4.68c-0.74-4.72-1.52-9.43-2.33-14.14c-0.14-0.81,0.02-1.34,0.6-1.92C53.6,36.4,56.88,33.08,60.13,29.73z
	"/>
</svg>
