<?xml version="1.0" encoding="utf-8"?>
<!-- Generator: Adobe Illustrator 26.0.1, SVG Export Plug-In . SVG Version: 6.00 Build 0)  -->
<svg version="1.1" id="Layer_1" xmlns="http://www.w3.org/2000/svg" xmlns:xlink="http://www.w3.org/1999/xlink" x="0px" y="0px"
	 viewBox="0 0 64 64" style="enable-background:new 0 0 64 64;" xml:space="preserve">
<style type="text/css">
	.st0{fill:#F19023;}
	.st1{fill:#FDFDFD;}
	.st2{fill:#FBFBFB;}
	.st3{fill:#FAFAFA;}
	.st4{fill:#F5F5F5;}
</style>
<g>
	<path class="st0" d="M0,29.38c0.28-0.63,0.24-1.32,0.34-1.98C2.22,14.29,12.17,3.59,25.14,0.75c2.16-0.47,4.35-0.72,6.56-0.74
		c1.54-0.02,2.62,0.9,2.69,2.26c0.07,1.46-0.91,2.51-2.52,2.56c-2.15,0.06-4.28,0.27-6.37,0.8c-4.23,1.06-8,3-11.28,5.87
		C10,15.19,7.05,19.71,5.73,25.16c-2.26,9.32-0.29,17.7,6.06,24.93c4.23,4.82,9.58,7.77,15.91,8.73c8.27,1.25,15.68-0.83,22.06-6.3
		c4.25-3.65,7.09-8.22,8.53-13.64c0.51-1.94,0.81-3.91,0.86-5.92c0.01-0.42,0.02-0.83,0.08-1.25c0.18-1.33,1.23-2.18,2.57-2.09
		c1.24,0.08,2.2,1.11,2.21,2.43c0.01,2.4-0.23,4.78-0.82,7.11c-2.78,11.01-9.48,18.6-20,22.82c-2.75,1.1-5.65,1.7-8.61,1.91
		c-0.11,0.01-0.26-0.05-0.31,0.12c-1.58,0-3.17,0-4.75,0c-0.04-0.13-0.15-0.12-0.25-0.12c-1.39-0.11-2.77-0.33-4.13-0.63
		C12.16,60.41,2.22,49.72,0.34,36.61c-0.1-0.66-0.06-1.35-0.34-1.98C0,32.88,0,31.13,0,29.38z"/>
	<path class="st0" d="M15.21,27.87c0.04-1,0.5-1.75,1.43-2.15c0.95-0.42,1.86-0.28,2.6,0.45c0.88,0.86,1.69,1.79,2.52,2.69
		c2.54,2.76,5.09,5.51,7.61,8.28c0.36,0.4,0.53,0.43,0.93,0.03c9.37-9.37,18.75-18.72,28.13-28.08c0.7-0.7,1.45-1.18,2.49-0.98
		c1.78,0.34,2.56,2.41,1.44,3.83c-0.15,0.2-0.33,0.37-0.51,0.55C51.83,22.47,41.81,32.46,31.8,42.45c-1.45,1.44-2.77,1.41-4.17-0.1
		c-3.87-4.2-7.73-8.4-11.6-12.59C15.53,29.22,15.17,28.64,15.21,27.87z"/>
</g>
</svg>
