<?xml version="1.0" encoding="utf-8"?>
<!-- Generator: Adobe Illustrator 26.0.1, SVG Export Plug-In . SVG Version: 6.00 Build 0)  -->
<svg version="1.1" id="Layer_1" xmlns="http://www.w3.org/2000/svg" xmlns:xlink="http://www.w3.org/1999/xlink" x="0px" y="0px"
	 viewBox="0 0 64 64" style="enable-background:new 0 0 64 64;" xml:space="preserve">
<style type="text/css">
	.st0{fill:#F19023;}
</style>
<path class="st0" d="M53.75,21.39c-6.98,0.02-13.96,0-20.93,0.03c-0.77,0-0.91-0.22-0.9-0.88c0.04-3.2,0.01-6.4,0.02-9.6
	c0-1.01-0.13-2.01-0.4-2.98c-1.37-4.93-6.6-8.35-12-7.86C14.01,0.61,9.55,4.88,9.2,9.96c-0.04,0.59,0.05,0.82,0.77,0.8
	c2.02-0.05,4.04-0.03,6.06-0.01c0.53,0.01,0.71-0.09,0.82-0.63c0.38-1.9,2.15-3.11,4.1-2.92c1.96,0.19,3.38,1.7,3.39,3.65
	c0.02,3.29-0.02,6.58,0.02,9.86c0.01,0.63-0.23,0.71-0.8,0.7c-2.02-0.03-4.04,0.01-6.06-0.02c-0.55-0.01-0.76,0.08-0.75,0.66
	c0.05,1.92,0.05,3.85,0,5.78c-0.02,0.64,0.25,0.7,0.81,0.69c1.96-0.03,3.92,0.02,5.87-0.03c0.71-0.02,0.95,0.12,0.94,0.85
	c-0.05,3.52-0.02,7.05-0.02,10.57c0,0,0,0,0.01,0c0,3.44-0.04,6.87,0.01,10.31c0.11,7.44,6.81,13.7,14.73,13.83
	c8.12,0.13,14.78-5.47,15.53-13.05c0.42-4.19-2.15-7.58-6.43-8.15c-2.75-0.37-5.55-0.07-8.32-0.12c-0.48-0.01-0.36,0.31-0.36,0.55
	c-0.01,1.98,0.02,3.97-0.02,5.95c-0.01,0.53,0.18,0.63,0.7,0.62c1.7-0.03,3.41-0.01,5.11-0.01c2.08,0,2.08,0,1.48,1.94
	c-1.04,3.36-4.59,5.59-8.17,5.13c-3.85-0.5-6.66-3.41-6.68-7.03c-0.03-6.84,0-13.69-0.03-20.53c0-0.71,0.22-0.85,0.93-0.85
	c6.98,0.03,13.96,0,20.93,0.03c0.76,0,0.92-0.2,0.91-0.88c-0.05-1.81-0.06-3.61,0-5.42C54.71,21.52,54.46,21.39,53.75,21.39z"/>
</svg>
