<?xml version="1.0" encoding="utf-8"?>
<!-- Generator: Adobe Illustrator 26.0.1, SVG Export Plug-In . SVG Version: 6.00 Build 0)  -->
<svg version="1.1" id="Layer_1" xmlns="http://www.w3.org/2000/svg" xmlns:xlink="http://www.w3.org/1999/xlink" x="0px" y="0px"
	 viewBox="0 0 64 64" style="enable-background:new 0 0 64 64;" xml:space="preserve">
<style type="text/css">
	.st0{fill:#F19023;}
</style>
<g>
	<path class="st0" d="M24.35,49.62c0-4.21-0.01-8.43,0.01-12.64c0-0.61-0.17-0.78-0.78-0.78c-2.44,0.02-4.89,0.02-7.33-0.04
		c-1.16-0.03-1.54-0.44-1.54-1.6c-0.02-3.28-0.03-6.56,0-9.83c0.01-1.23,0.5-1.65,1.85-1.66c2.34-0.02,4.68-0.03,7.02,0.01
		c0.6,0.01,0.78-0.14,0.79-0.77c0.02-2.96-0.13-5.93,0.13-8.89C25.13,6.16,30.52,0.77,37.77,0.2c3.3-0.26,6.6-0.09,9.91-0.11
		c1.13-0.01,1.61,0.49,1.62,1.65c0.02,3.04,0.02,6.09,0,9.13c-0.01,1.1-0.4,1.52-1.51,1.57c-2.13,0.08-4.27,0.08-6.4,0.11
		c-2.47,0.04-3.44,1.01-3.47,3.47c-0.02,2.08,0.01,4.16-0.04,6.24c-0.02,0.68,0.22,0.81,0.84,0.8c2.68-0.03,5.36-0.02,8.04-0.01
		c1.76,0,2.11,0.35,2.12,2.09c0,3.1,0,6.19,0,9.29c0,1.34-0.3,1.71-1.62,1.74c-2.81,0.06-5.62,0.07-8.43,0.03
		c-0.83-0.01-0.97,0.25-0.97,1.01c0.03,8.06,0.02,16.13,0.02,24.2c0,2.44-0.22,2.66-2.67,2.66c-2.97,0-5.93,0-8.9,0
		c-1.53,0-1.95-0.42-1.95-1.95C24.35,57.95,24.35,53.78,24.35,49.62z"/>
</g>
</svg>
