<?xml version="1.0" encoding="utf-8"?>
<!-- Generator: Adobe Illustrator 26.0.1, SVG Export Plug-In . SVG Version: 6.00 Build 0)  -->
<svg version="1.1" id="Layer_1" xmlns="http://www.w3.org/2000/svg" xmlns:xlink="http://www.w3.org/1999/xlink" x="0px" y="0px"
	 viewBox="0 0 64 64" style="enable-background:new 0 0 64 64;" xml:space="preserve">
<style type="text/css">
	.st0{fill:#F19023;}
</style>
<g>
	<path class="st0" d="M41.66,0.01c0.11,0.36,0.01,0.58-0.33,0.79c-1.28,0.77-2.54,1.58-3.8,2.39c-0.28,0.18-0.57,0.22-0.88,0.22
		c-1.49-0.01-2.99,0-4.62,0c0.92,0.83,1.74,1.58,2.5,2.39c3.97,4.3,4.53,11.24,1.25,16c-1.17,1.7-2.71,3.04-4.32,4.31
		c-0.79,0.62-1.48,1.35-2.07,2.15c-1.31,1.76-1.04,3.89,0.77,5.44c1.58,1.36,3.25,2.6,4.84,3.94c1.81,1.52,3.51,3.17,4.54,5.33
		c1.81,3.8,1.57,7.6-0.35,11.27c-1.99,3.82-5.25,6.22-9.17,7.78c-4.78,1.9-9.76,2.3-14.85,1.78c-2.99-0.3-5.86-1.02-8.46-2.57
		c-3.32-1.97-5.56-4.73-5.75-8.72c-0.16-3.45,1.28-6.3,3.76-8.64c2.36-2.23,5.24-3.48,8.32-4.34c2.98-0.83,6.04-1.19,9.11-1.4
		c0.33-0.02,0.67-0.01,1.07-0.16c-2.25-2.61-3.33-5.45-1.59-8.86c-1.27,0.11-2.42,0.2-3.57,0.13c-5.03-0.32-8.98-2.47-11.41-6.98
		c-1.89-3.51-2.02-7.2-0.63-10.91c1.76-4.73,5.29-7.7,9.83-9.6c2.24-0.94,4.61-1.38,7.02-1.61C23,0.13,23.2,0.23,23.29,0.01
		C29.41,0.01,35.54,0.01,41.66,0.01z M22.63,60.52c2.22,0,4.24-0.22,6.19-0.88c2.1-0.72,3.92-1.83,5.12-3.77
		c2.04-3.3,1.51-7.32-1.26-10.12c-1.8-1.82-3.88-3.27-5.91-4.79c-0.54-0.4-1.09-0.56-1.73-0.56c-2.09-0.02-4.16,0.17-6.22,0.52
		c-2.72,0.45-5.29,1.29-7.48,3.04c-2.45,1.97-3.41,4.56-2.98,7.64c0.45,3.24,2.43,5.39,5.21,6.88
		C16.46,60.01,19.59,60.47,22.63,60.52z M30.56,18.25c0.02-0.84-0.08-1.89-0.28-2.94c-0.67-3.6-1.94-6.92-4.54-9.6
		c-1.6-1.65-3.56-2.63-5.9-2.53c-3.97,0.17-6.93,3.08-7.31,7.04c-0.41,4.4,0.6,8.48,2.92,12.2c1.64,2.63,3.91,4.44,7.19,4.49
		c2.43,0.04,4.53-0.83,6.14-2.67C30.24,22.6,30.59,20.59,30.56,18.25z"/>
	<path class="st0" d="M54.78,38.16c0,1.21-0.02,2.42,0.01,3.63c0.01,0.52-0.2,0.71-0.7,0.7c-0.92-0.02-1.83-0.02-2.75,0
		c-0.51,0.01-0.7-0.17-0.69-0.7c0.02-2.38-0.01-4.75,0.02-7.13c0.01-0.5-0.15-0.61-0.62-0.6c-2.31,0.02-4.62,0.01-6.94,0.01
		c-0.77,0-0.8-0.04-0.8-0.82c0-0.85,0.03-1.71-0.01-2.56c-0.02-0.59,0.17-0.81,0.79-0.8c2.33,0.03,4.67,0,7,0.02
		c0.46,0,0.59-0.1,0.58-0.57c-0.03-2.35,0-4.71-0.02-7.06c-0.01-0.55,0.18-0.75,0.72-0.73c0.9,0.03,1.79,0.03,2.69,0
		c0.53-0.01,0.74,0.17,0.73,0.73c-0.02,2.35,0,4.71-0.02,7.06c-0.01,0.46,0.1,0.58,0.58,0.58c2.35-0.03,4.71,0,7.06-0.02
		c0.58-0.01,0.78,0.19,0.76,0.76c-0.03,0.87-0.04,1.75,0,2.62c0.03,0.6-0.17,0.81-0.78,0.8c-2.33-0.03-4.67,0-7-0.02
		c-0.49-0.01-0.63,0.11-0.62,0.61C54.81,35.83,54.78,37,54.78,38.16z"/>
</g>
</svg>
