<?xml version="1.0" encoding="utf-8"?>
<!-- Generator: Adobe Illustrator 26.0.1, SVG Export Plug-In . SVG Version: 6.00 Build 0)  -->
<svg version="1.1" id="Layer_1" xmlns="http://www.w3.org/2000/svg" xmlns:xlink="http://www.w3.org/1999/xlink" x="0px" y="0px"
	 viewBox="0 0 64 64" style="enable-background:new 0 0 64 64;" xml:space="preserve">
<style type="text/css">
	.st0{fill:#F19023;}
</style>
<g>
	<path class="st0" d="M-0.01,48.38c0-10.92,0-21.83,0-32.75c0.2-0.06,0.13-0.24,0.15-0.37c0.15-1.01,0.35-2.01,0.66-2.98
		C3.22,4.89,9.84,0.04,17.66,0.02c9.56-0.03,19.11-0.01,28.67,0c3.05,0,5.96,0.67,8.59,2.22c5.96,3.5,9.01,8.76,9.04,15.68
		c0.05,9.41,0.01,18.82,0.01,28.24c0,2.29-0.34,4.52-1.21,6.65c-2.22,5.43-6.16,8.95-11.79,10.6c-0.95,0.28-1.94,0.29-2.88,0.61
		c-10.83,0-21.66,0-32.49,0c-0.69-0.36-1.47-0.29-2.2-0.5c-6.67-1.85-10.96-6.1-12.88-12.75C0.3,49.98,0.36,49.13-0.01,48.38z
		 M60.2,31.99c0-4.67,0-9.33,0-14c0-1.1-0.07-2.21-0.32-3.29C58.36,8.14,52.96,3.81,46.2,3.79c-9.48-0.02-18.95-0.01-28.43,0
		c-1.59,0-3.16,0.2-4.66,0.74c-5.8,2.1-9.34,7.13-9.35,13.32c-0.01,9.44-0.01,18.87,0,28.31c0,1.06,0.08,2.12,0.32,3.16
		c1.52,6.54,6.9,10.88,13.62,10.91c9.52,0.03,19.04,0.04,28.55,0c4.71-0.02,8.53-1.94,11.34-5.75c1.82-2.46,2.6-5.27,2.61-8.3
		C60.21,41.44,60.2,36.71,60.2,31.99z"/>
	<path class="st0" d="M32,14.47c9.7,0.04,17.59,7.95,17.52,17.57c-0.07,9.72-7.99,17.61-17.59,17.51
		c-9.73-0.1-17.49-7.89-17.49-17.54C14.44,22.34,22.36,14.43,32,14.47z M32.01,18.25c-7.58-0.03-13.78,6.14-13.79,13.74
		c-0.01,7.57,6.1,13.72,13.7,13.77c7.57,0.06,13.78-6.1,13.82-13.71C45.78,24.48,39.62,18.28,32.01,18.25z"/>
	<path class="st0" d="M55.9,13.4c0.01,2.9-2.4,5.33-5.31,5.35c-2.88,0.01-5.32-2.42-5.35-5.32c-0.02-2.88,2.41-5.32,5.32-5.34
		C53.47,8.07,55.89,10.47,55.9,13.4z M50.59,11.87c-0.84,0-1.55,0.7-1.56,1.53c-0.01,0.81,0.73,1.56,1.54,1.56
		c0.82,0.01,1.54-0.71,1.55-1.54C52.12,12.57,51.44,11.88,50.59,11.87z"/>
</g>
</svg>
