<?xml version="1.0" encoding="utf-8"?>
<!-- Generator: Adobe Illustrator 26.0.1, SVG Export Plug-In . SVG Version: 6.00 Build 0)  -->
<svg version="1.1" id="Layer_1" xmlns="http://www.w3.org/2000/svg" xmlns:xlink="http://www.w3.org/1999/xlink" x="0px" y="0px"
	 viewBox="0 0 64 64" style="enable-background:new 0 0 64 64;" xml:space="preserve">
<style type="text/css">
	.st0{fill:#F19023;}
</style>
<g>
	<path class="st0" d="M35.41,27.24c0.8-1.35,1.61-2.41,2.61-3.31c2.63-2.34,5.74-3.5,9.23-3.64c3.07-0.12,6.08,0.19,8.91,1.5
		c3.73,1.73,5.7,4.85,6.75,8.67c0.74,2.7,1.01,5.47,1.03,8.26C64,46.92,63.97,55.11,64,63.31c0,0.51-0.17,0.59-0.62,0.59
		c-4.01-0.02-8.02-0.02-12.02,0.01c-0.59,0-0.65-0.21-0.65-0.71c0.01-7.16,0.01-14.31-0.01-21.47c0-1.48-0.11-2.96-0.4-4.42
		c-0.89-4.44-3.75-5.84-7.72-5.38c-3.73,0.43-5.76,2.64-6.37,6.66c-0.22,1.47-0.31,2.95-0.3,4.43c0.01,6.74,0,13.48,0.01,20.22
		c0,0.57-0.09,0.79-0.74,0.79c-3.96-0.04-7.91-0.03-11.87,0c-0.54,0-0.69-0.13-0.69-0.68c0.02-13.79,0.02-27.58,0-41.37
		c0-0.55,0.15-0.69,0.69-0.68c3.8,0.02,7.6,0.02,11.4,0c0.53,0,0.66,0.15,0.65,0.66c-0.03,1.46-0.01,2.91-0.01,4.37
		C35.35,26.54,35.38,26.78,35.41,27.24z"/>
	<path class="st0" d="M14.33,42.61c0,6.87-0.01,13.73,0.02,20.6c0,0.65-0.17,0.81-0.81,0.8c-3.9-0.03-7.8-0.03-11.7,0
		c-0.56,0-0.79-0.08-0.79-0.74c0.02-13.76,0.02-27.52,0-41.28c0-0.58,0.14-0.74,0.73-0.73c3.95,0.03,7.91,0.03,11.86,0
		c0.61,0,0.72,0.19,0.71,0.75C14.33,28.88,14.33,35.75,14.33,42.61z"/>
	<path class="st0" d="M15.35,7.67c0.03,4.24-3.42,7.76-7.62,7.78C3.52,15.48,0,11.95,0,7.7c0-4.18,3.44-7.65,7.63-7.68
		C11.86-0.02,15.33,3.42,15.35,7.67z"/>
</g>
</svg>
