<?xml version="1.0" encoding="utf-8"?>
<!-- Generator: Adobe Illustrator 26.0.1, SVG Export Plug-In . SVG Version: 6.00 Build 0)  -->
<svg version="1.1" id="Layer_1" xmlns="http://www.w3.org/2000/svg" xmlns:xlink="http://www.w3.org/1999/xlink" x="0px" y="0px"
	 viewBox="0 0 64 64" style="enable-background:new 0 0 64 64;" xml:space="preserve">
<style type="text/css">
	.st0{fill:#F19023;}
</style>
<g>
	<path class="st0" d="M17.66,64c-0.43-0.54-0.38-1.22-0.46-1.84c-0.5-3.53-0.77-7.08-0.42-10.65c0.2-2.04,0.83-3.99,1.31-5.96
		c1.21-4.97,2.45-9.92,3.69-14.88c0.08-0.33,0.06-0.61-0.06-0.95c-1.32-3.51-1.53-7.02,0.14-10.48c1.06-2.18,2.7-3.79,5.18-4.18
		c3.37-0.53,5.83,1.29,6.11,4.75c0.15,1.78-0.3,3.47-0.8,5.15c-0.78,2.63-1.61,5.24-2.4,7.86c-1.4,4.68,2.37,7.77,6.35,7.51
		c4.42-0.3,7.43-2.73,9.57-6.41c1.77-3.05,2.51-6.4,2.69-9.89c0.13-2.5-0.1-4.94-1-7.3c-1.46-3.81-4.07-6.59-7.76-8.2
		c-5.84-2.55-11.75-2.42-17.42,0.43c-5.1,2.56-8.12,6.84-8.93,12.53c-0.57,4,0.35,7.68,2.81,10.93c0.32,0.42,0.4,0.85,0.27,1.35
		c-0.35,1.33-0.69,2.65-1.04,3.98c-0.26,0.96-0.64,1.14-1.54,0.71c-1.67-0.79-3.05-1.95-4.15-3.42C6.91,31.2,5.56,26.9,5.86,22.08
		c0.3-4.86,1.93-9.21,5.01-12.98c2.77-3.38,6.27-5.74,10.37-7.22c4.62-1.66,9.39-2.18,14.26-1.74c4.77,0.43,9.19,1.93,13.09,4.75
		c4.97,3.61,8.18,8.41,8.94,14.56c0.91,7.42-0.9,14.18-5.7,19.99c-2.81,3.4-6.44,5.63-10.76,6.6c-3.29,0.74-6.56,0.78-9.72-0.66
		c-1.52-0.69-2.87-1.59-3.81-3.01c-0.04-0.07-0.11-0.12-0.2-0.22c-0.72,2.61-1.47,5.15-2.11,7.72c-0.86,3.43-2.38,6.55-4.19,9.55
		c-0.94,1.56-1.89,3.12-2.99,4.58C17.91,64,17.79,64,17.66,64z"/>
</g>
</svg>
