<?xml version="1.0" encoding="utf-8"?>
<!-- Generator: Adobe Illustrator 26.0.1, SVG Export Plug-In . SVG Version: 6.00 Build 0)  -->
<svg version="1.1" id="Layer_1" xmlns="http://www.w3.org/2000/svg" xmlns:xlink="http://www.w3.org/1999/xlink" x="0px" y="0px"
	 viewBox="0 0 64 64" style="enable-background:new 0 0 64 64;" xml:space="preserve">
<style type="text/css">
	.st0{fill:#F19023;}
</style>
<g>
	<path class="st0" d="M64,29.5c0,1.71,0,3.42,0,5.12c-0.17,0.05-0.12,0.19-0.13,0.31c-0.14,1.35-0.31,2.69-0.63,4
		C60.76,49.29,54.65,56.72,45,61.19c-5.43,2.51-11.18,3.3-17.12,2.53c-4.06-0.52-7.9-1.77-11.47-3.79
		c-0.42-0.23-0.78-0.25-1.22-0.13c-3.85,1.04-7.7,2.07-11.56,3.1c-1.8,0.48-3.02-0.75-2.55-2.55c1.02-3.85,2.05-7.7,3.1-11.55
		c0.12-0.44,0.1-0.81-0.13-1.23c-3.47-6.33-4.74-13.07-3.7-20.23c0.87-6.01,3.29-11.36,7.21-15.98C12.77,5.22,19.4,1.53,27.39,0.33
		c0.66-0.1,1.35-0.05,1.98-0.33c0.21,0,0.42,0,0.63,0c0.13,0.2,0.25,0.15,0.38,0c1.33,0,2.67,0,4,0c0.62,0.22,1.28,0.19,1.92,0.28
		c6.26,0.88,11.82,3.33,16.58,7.49c6.23,5.44,9.89,12.26,10.91,20.49C63.83,28.67,63.74,29.12,64,29.5z M5.67,58.23
		c0.27,0.06,0.44-0.02,0.62-0.07c3.03-0.81,6.06-1.61,9.09-2.43c0.68-0.19,1.31-0.14,1.92,0.23c0.28,0.17,0.58,0.33,0.87,0.49
		c5.51,3.1,11.41,4.27,17.68,3.4c6.29-0.86,11.74-3.56,16.13-8.12c7.13-7.4,9.6-16.27,7.34-26.27C55.91,10.39,40.35,0.96,25.33,4.7
		C18.9,6.3,13.66,9.73,9.63,14.99c-3.56,4.64-5.48,9.9-5.75,15.73c-0.26,5.45,1,10.57,3.77,15.28c0.65,1.11,0.8,2.12,0.43,3.36
		C7.21,52.28,6.47,55.24,5.67,58.23z"/>
	<path class="st0" d="M30.36,0c-0.13,0.15-0.25,0.2-0.38,0C30.11,0,30.24,0,30.36,0z"/>
	<path class="st0" d="M38.19,49.31c-5.65-0.19-10.42-2.51-14.64-6.14c-3.25-2.8-5.75-6.17-7.36-10.16c-1.42-3.53-2-7.17-1.08-10.93
		c0.73-2.99,2.38-5.32,5.11-6.83c1.61-0.9,3.63-0.72,4.99,0.54c1.27,1.17,2.51,2.38,3.68,3.66c1.93,2.11,1.61,4.96-0.69,6.69
		c-0.43,0.33-0.88,0.63-1.33,0.93c-0.22,0.14-0.31,0.29-0.25,0.56c0.59,2.74,1.62,5.25,3.83,7.1c1.72,1.44,3.75,2.18,5.91,2.65
		c0.35,0.08,0.48-0.12,0.64-0.34c0.61-0.86,1.14-1.78,2.04-2.41c1.45-1.01,3.65-1.04,5.02,0.08c1.58,1.3,3,2.77,4.34,4.31
		c1.13,1.3,1.18,3.31,0.29,4.86c-1.78,3.1-4.56,4.68-7.99,5.26C39.87,49.27,39.04,49.28,38.19,49.31z M38.37,45.41
		c0.33-0.01,0.73-0.01,1.12-0.05c2.34-0.28,4.39-1.07,5.7-3.21c0.27-0.44,0.22-0.75-0.14-1.09c-1-0.97-1.97-1.97-2.97-2.95
		c-0.54-0.53-0.75-0.51-1.18,0.1c-0.54,0.77-1.06,1.54-1.6,2.31c-0.53,0.75-1.24,1.03-2.16,0.92c-1.64-0.2-3.23-0.59-4.77-1.18
		c-2.59-1-4.85-2.47-6.52-4.73c-1.83-2.48-2.78-5.3-3.27-8.32c-0.21-1.3,0.22-2.16,1.31-2.82c0.66-0.39,1.27-0.86,1.9-1.31
		c0.58-0.41,0.6-0.63,0.1-1.14c-0.86-0.87-1.74-1.74-2.61-2.61c-0.93-0.93-1.03-0.93-2.06-0.13c-0.05,0.04-0.09,0.08-0.14,0.12
		c-1.65,1.37-2.3,3.22-2.48,5.27c-0.29,3.35,0.71,6.41,2.32,9.29c2.18,3.91,5.23,6.97,9.14,9.15
		C32.63,44.45,35.34,45.39,38.37,45.41z"/>
</g>
</svg>
