<?xml version="1.0" encoding="utf-8"?>
<!-- Generator: Adobe Illustrator 26.0.1, SVG Export Plug-In . SVG Version: 6.00 Build 0)  -->
<svg version="1.1" id="Layer_1" xmlns="http://www.w3.org/2000/svg" xmlns:xlink="http://www.w3.org/1999/xlink" x="0px" y="0px"
	 viewBox="0 0 64 64" style="enable-background:new 0 0 64 64;" xml:space="preserve">
<style type="text/css">
	.st0{fill:#F19023;}
</style>
<path class="st0" d="M64.01,45.08c-0.31-1.54-1.35-2.58-2.41-3.64c-8.72-8.67-17.42-17.36-26.12-26.05
	c-1.38-1.38-2.96-1.95-4.88-1.36c-0.76,0.23-1.37,0.68-1.92,1.23C19.61,24.3,10.55,33.33,1.49,42.38c-2.38,2.38-1.83,5.99,1.13,7.38
	c1.55,0.73,3.08,0.54,4.49-0.45c0.34-0.24,0.64-0.53,0.93-0.83c7.82-7.8,15.65-15.6,23.46-23.42c0.38-0.38,0.58-0.43,0.99-0.02
	c7.85,7.86,15.72,15.7,23.59,23.56c1.36,1.36,2.94,1.94,4.82,1.34c1.44-0.46,2.39-1.44,2.88-2.88c0.07-0.2,0.03-0.46,0.23-0.61
	C64.01,46,64.01,45.54,64.01,45.08z"/>
</svg>
