<?xml version="1.0" encoding="utf-8"?>
<!-- Generator: Adobe Illustrator 26.0.1, SVG Export Plug-In . SVG Version: 6.00 Build 0)  -->
<svg version="1.1" id="Layer_1" xmlns="http://www.w3.org/2000/svg" xmlns:xlink="http://www.w3.org/1999/xlink" x="0px" y="0px"
	 viewBox="0 0 64 64" style="enable-background:new 0 0 64 64;" xml:space="preserve">
<style type="text/css">
	.st0{fill:#F19023;}
</style>
<path class="st0" d="M45.09,0c-1.54,0.31-2.58,1.35-3.64,2.41c-8.67,8.72-17.36,17.42-26.05,26.12c-1.38,1.38-1.95,2.96-1.36,4.88
	c0.23,0.76,0.68,1.37,1.23,1.92c9.04,9.06,18.07,18.13,27.12,27.18c2.38,2.38,5.99,1.83,7.38-1.13c0.73-1.55,0.54-3.08-0.45-4.49
	c-0.24-0.34-0.53-0.64-0.83-0.93c-7.8-7.82-15.6-15.65-23.42-23.46c-0.38-0.38-0.43-0.58-0.02-0.99
	c7.86-7.85,15.7-15.72,23.56-23.59c1.36-1.36,1.94-2.94,1.34-4.82c-0.46-1.44-1.44-2.39-2.88-2.88C46.87,0.16,46.62,0.2,46.46,0
	C46,0,45.54,0,45.09,0z"/>
</svg>
