<?xml version="1.0" encoding="utf-8"?>
<!-- Generator: Adobe Illustrator 26.0.1, SVG Export Plug-In . SVG Version: 6.00 Build 0)  -->
<svg version="1.1" id="Layer_1" xmlns="http://www.w3.org/2000/svg" xmlns:xlink="http://www.w3.org/1999/xlink" x="0px" y="0px"
	 viewBox="0 0 64 64" style="enable-background:new 0 0 64 64;" xml:space="preserve">
<style type="text/css">
	.st0{fill:#F19023;}
</style>
<path class="st0" d="M18.91,0c1.54,0.31,2.58,1.35,3.64,2.41c8.67,8.72,17.36,17.42,26.05,26.12c1.38,1.38,1.95,2.96,1.36,4.88
	c-0.23,0.76-0.68,1.37-1.23,1.92c-9.04,9.06-18.07,18.13-27.12,27.18c-2.38,2.38-5.99,1.83-7.38-1.13
	c-0.73-1.55-0.54-3.08,0.45-4.49c0.24-0.34,0.53-0.64,0.83-0.93c7.8-7.82,15.6-15.65,23.42-23.46c0.38-0.38,0.43-0.58,0.02-0.99
	c-7.86-7.85-15.7-15.72-23.56-23.59c-1.36-1.36-1.94-2.94-1.34-4.82c0.46-1.44,1.44-2.39,2.88-2.88c0.2-0.07,0.46-0.03,0.61-0.23
	C18,0,18.46,0,18.91,0z"/>
</svg>
